<?xml version="1.0" encoding="utf-8"?>
<!-- Generator: Adobe Illustrator 16.0.0, SVG Export Plug-In . SVG Version: 6.00 Build 0)  -->
<!DOCTYPE svg PUBLIC "-//W3C//DTD SVG 1.1//EN" "http://www.w3.org/Graphics/SVG/1.1/DTD/svg11.dtd">
<svg version="1.1" xmlns="http://www.w3.org/2000/svg" xmlns:xlink="http://www.w3.org/1999/xlink" x="0px" y="0px"
	 width="1622.055px" height="435.099px" viewBox="0 0 1622.055 435.099" enable-background="new 0 0 1622.055 435.099"
	 xml:space="preserve">
<g id="Layer_1">
	<path fill-rule="evenodd" clip-rule="evenodd" d="M189.183,196.692c-21.938,0-42.882,0-64.214,0c0-59.969,0-119.823,0-179.986
		c1.243-0.093,40.475-0.221,58.842-0.341c2.904-0.018,4.642,0.874,6.369,3.284c11.909,16.624,24.012,33.108,36.364,50.066
		c0.976-1.12,1.828-1.964,2.525-2.92c11.383-15.62,22.788-31.224,34.069-46.917c1.762-2.45,3.567-3.569,6.754-3.54
		c19.493,0.177,38.988,0.088,58.846,0.088c0,60.144,0,120.01,0,180.131c-21.229,0-42.283,0-64.058,0c0-28.215,0-56.332,0-84.446
		c-0.358-0.091-0.716-0.181-1.075-0.272c-7.557,9.687-15.115,19.374-22.674,29.06c-3.198,4.096-6.375,8.208-9.61,12.275
		c-3.143,3.952-6.16,3.918-9.333-0.147c-10.682-13.694-21.329-27.414-32.805-42.174C189.183,140.09,189.183,168.162,189.183,196.692
		z"/>
	<path fill-rule="evenodd" clip-rule="evenodd" d="M768.418,90.525c0-25.514,0-49.518,0-73.809c22.32,0,44.333,0,66.689,0
		c0,59.893,0,119.729,0,180.096c-6.452,0-12.742,0-19.029,0c-11.535,0-23.073-0.109-34.606,0.071
		c-3.091,0.048-4.962-0.871-6.804-3.43c-17.351-24.112-34.859-48.109-53.23-73.388c0,26.275,0,51.221,0,76.453
		c-22.761,0-44.754,0-67.025,0c0-59.884,0-119.609,0-179.8c1.316-0.093,38.871-0.195,56.254-0.376
		c3.208-0.033,4.977,1.169,6.73,3.624c15.854,22.186,31.811,44.296,47.747,66.421C765.875,87.401,766.694,88.351,768.418,90.525z"/>
	<path fill-rule="evenodd" clip-rule="evenodd" d="M899.813,391.087c-18.712,0-37.064,0.099-55.409-0.162
		c-1.729-0.027-3.88-1.992-5.071-3.615c-16.603-22.654-33.073-45.405-49.584-68.122c-0.938-1.289-1.956-2.521-3.83-4.922
		c0,26.307,0,51.328,0,76.583c-22.556,0-44.421,0-66.619,0c0-59.968,0-119.804,0-180.145c2.241,0,4.309,0,6.375,0
		c16.576,0,33.149,0.087,49.719-0.076c3.147-0.031,4.948,1.028,6.745,3.55c15.638,21.943,31.425,43.78,47.172,65.645
		c0.941,1.306,1.93,2.58,3.58,4.777c0-25.051,0-49.082,0-73.503c22.512,0,44.513,0,66.922,0
		C899.813,270.795,899.813,330.629,899.813,391.087z"/>
	<path fill-rule="evenodd" clip-rule="evenodd" d="M1329.283,196.541c-22.728,0-45.075,0-67.829,0c0-20.996,0-41.73,0-62.791
		c-14.939,0-20.447,0-35.6,0c0,20.818,0,41.678,0,62.796c-22.974,0-45.342,0-68.076,0c0-59.851,0-119.696,0-179.831
		c22.457,0,44.803,0,67.716,0c0.085,1.664,0.352,40.489,0.185,58.197c-0.035,3.647,1.064,4.744,4.707,4.688
		c13.118-0.197,17.211-0.076,30.898-0.076c0-21.174,0-41.869,0-62.826c22.915,0,45.266,0,67.999,0
		C1329.283,76.537,1329.283,136.373,1329.283,196.541z"/>
	<path fill-rule="evenodd" clip-rule="evenodd" d="M1192.557,335.499l0.11,55.444l-69.73-0.191c0,0,0-119.624,0-179.758
		c1.424-0.097,74.45-0.782,109.546-0.128c28.069,0.523,52.913,16.536,61.265,43.349c8.304,26.654-1.243,54.094-24.306,69.813
		c-0.785,0.532-1.512,1.147-2.56,1.946c5.418,10.806,10.77,21.513,16.153,32.204c5.382,10.691,10.798,21.37,16.49,32.631
		c-1.729,0.118-2.925,0.271-4.119,0.271c-21.778,0.014-43.559-0.083-65.339,0.105c-3.411,0.032-4.797-1.088-5.811-4.18
		c-5.138-15.724-10.557-31.355-15.693-47.079c-1.043-3.2-2.347-4.904-6.057-4.509
		C1198.854,335.803,1192.557,335.499,1192.557,335.499z M1191.173,288.525c1.188,0.1,16.727,0.317,23.854,0.171
		c8.493-0.177,14.637-5.937,15.614-14.353c0.841-7.245-4.145-14.432-12.443-15.354c-8.881-0.987-17.955-0.222-27.025-0.222
		C1191.173,268.828,1191.173,278.491,1191.173,288.525z"/>
	<path fill-rule="evenodd" clip-rule="evenodd" d="M926.869,391.09c0-60.468,0-120.174,0-180.14
		c1.674-0.092,56.826-0.656,82.97-0.11c20.611,0.431,40.358,5.094,58.217,16.022c24.017,14.696,37.063,36.405,39.429,64.17
		c2.051,24.092-3.178,46.52-18.959,65.614c-14.46,17.497-33.561,27.238-55.469,31.36c-10.276,1.93-20.868,2.756-31.341,2.95
		c-23.057,0.426-46.128,0.133-69.193,0.133C930.764,391.09,929.003,391.09,926.869,391.09z M995.244,336.34
		c15.456,1.403,29.868,0.495,37.921-14.428c7.807-14.464,8.434-29.869-0.653-44.056c-8.696-13.579-22.82-13.597-37.268-12.412
		C995.244,289.104,995.244,312.588,995.244,336.34z"/>
	<path fill-rule="evenodd" clip-rule="evenodd" d="M454.343,196.812c0-60.45,0-120.168,0-180.187
		c1.505-0.074,56.995-0.702,83.458-0.03c23.188,0.589,45.24,6.278,64.172,20.456c24.492,18.342,34.403,43.565,32.942,73.584
		c-2.025,41.633-28.36,72.712-70.171,82.101c-10.962,2.462-22.388,3.625-33.636,3.899c-23.703,0.579-47.429,0.177-71.146,0.177
		C458.208,196.812,456.455,196.812,454.343,196.812z M522.716,71.125c0,23.931,0,47.393,0,70.979
		c14.736,1.27,28.843,0.672,37.129-13.512c8.327-14.255,8.972-29.616,0.559-44.033C552,70.158,537.551,69.997,522.716,71.125z"/>
	<path fill-rule="evenodd" clip-rule="evenodd" d="M298.612,391.084c0,0,5.918-16.24,8.825-24.107
		c18.715-50.633,37.465-101.253,56.088-151.92c1.165-3.166,2.5-4.48,6.119-4.451c24.686,0.189,49.375,0.099,74.602,0.099
		c22.151,59.933,44.307,119.882,66.593,180.189c-24.074,0-47.581,0-71.714,0c-1.68-5.797-3.583-11.758-5.083-17.817
		c-0.668-2.701-1.789-3.689-4.607-3.672c-16.405,0.115-32.817,0.147-49.225-0.02c-3.118-0.033-4.221,1.221-4.886,3.945
		c-1.191,4.876-5.895,17.641-5.895,17.641L298.612,391.084z M389.479,322.642c10.61,0,20.306,0,30.507,0
		c-4.974-17.793-9.854-35.252-14.734-52.714c-0.356,0.012-0.712,0.023-1.068,0.039C399.327,287.363,394.468,304.763,389.479,322.642
		z"/>
	<path fill-rule="evenodd" clip-rule="evenodd" d="M1431.854,390.943c-23.053,0-45.28,0-68.118,0
		c-0.079-1.764-0.214-3.468-0.219-5.167c-0.014-15.758,0.091-31.518-0.103-47.272c-0.035-2.777-0.79-5.797-2.068-8.267
		c-19.611-37.881-39.364-75.687-59.079-113.515c-0.888-1.706-1.724-3.651-2.841-5.889c1.585-0.136,79.135,0,79.135,0
		s12.169,34.197,17.664,49.259c0.323,0.888,0.732,1.741,1.539,3.632c6.648-18.219,12.972-35.55,19.302-52.892
		c26.252,0,52.209,0,78.86,0c-0.933,1.909-1.65,3.467-2.441,4.983c-19.788,37.962-39.626,75.898-59.291,113.924
		c-1.418,2.738-2.196,6.112-2.239,9.207c-0.224,15.429-0.101,30.864-0.101,46.295
		C1431.854,386.999,1431.854,388.752,1431.854,390.943z"/>
	<path fill-rule="evenodd" clip-rule="evenodd" d="M1463.588,196.668c-23.203,0-45.442,0-68.243,0c0-41.768,0-83.431,0-125.616
		c-16.396,0-32.239,0-48.539,0c0-18.283,0-36.051,0-54.225c54.815,0,109.778,0,165.079,0c0,17.782,0,35.557,0,53.865
		c-16.016,0-31.871,0-48.297,0C1463.588,112.891,1463.588,154.564,1463.588,196.668z"/>
	<path fill-rule="evenodd" clip-rule="evenodd" d="M290.123,390.97c-48.69,0-96.936,0-145.576,0c0-59.945,0-119.792,0-179.952
		c22.442,0,44.916,0,67.766,0c0,41.745,0,83.288,0,125.499c26.072,0,51.785,0,77.81,0
		C290.123,354.956,290.123,372.732,290.123,390.97z"/>
	<path fill-rule="evenodd" clip-rule="evenodd" d="M425.585,16.749c0,59.93,0,119.664,0,179.731c-22.599,0-45.074,0-67.801,0
		c0-59.926,0-119.665,0-179.731C380.364,16.749,402.843,16.749,425.585,16.749z"/>
	<path fill-rule="evenodd" clip-rule="evenodd" d="M931.746,196.57c-22.721,0-45.067,0-67.67,0c0-59.944,0-119.646,0-179.747
		c22.391,0,44.854,0,67.67,0C931.746,76.551,931.746,136.366,931.746,196.57z"/>
	<path fill-rule="evenodd" clip-rule="evenodd" d="M1046.197,99.701v29.646h33.818v15.064c0,0-5.617,2.444-27.581,2.444
		c-9.256,0-17.896-5.01-23.345-10.825c-4.298-4.587-9.621-16.923-9.234-29.642c0.386-12.718,6.58-21.94,13.941-27.026
		c16.756-11.578,35.488-7.499,57.044,11.045l40.8-39.127c-10.354-14.308-24.545-25.127-38.531-31.127
		c-24.286-10.417-55.894-11.316-86.773-0.007c-25.955,9.505-42.856,28.226-50.577,54.669c-3.062,10.49-4.608,21.035-4.7,31.571
		c0,0,0,0.001,0,0.002c0,0.001,0,0.002,0,0.003c0.092,10.537,1.639,21.081,4.7,31.571c7.721,26.444,24.622,48.177,50.577,57.682
		c30.88,11.309,61.15,9.395,91.756-3.224c13.187-5.437,20.801-12.243,35.297-29.187c-0.037-0.003,0-63.534,0-63.534H1046.197z"/>
	<path fill-rule="evenodd" clip-rule="evenodd" d="M693.244,211.077c-22.788,0-45.283,0-68.542,0c0,1.745,0.171,69.826-0.17,101.99
		c-0.056,5.277-1.43,11.026-3.868,15.679c-3.057,5.825-9.75,8.801-16.318,8.6c-6.569,0.202-13.261-2.775-16.318-8.6
		c-2.439-4.653-3.813-10.402-3.869-15.679c-0.341-32.164-0.17-100.245-0.17-101.99c-23.259,0-45.754,0-68.542,0
		c0,2.149-0.003,79.079-0.003,112.708c0,23.535,16.128,47.669,32.71,57.234c16.888,9.74,33.626,13.478,56.192,13.071
		c22.565,0.407,39.303-3.331,56.191-13.071c16.582-9.564,32.711-33.699,32.711-57.234
		C693.248,290.156,693.244,213.226,693.244,211.077z"/>
</g>
<g id="Layer_2">
	<path d="M1491.79,423.623l-1385.892-0.001L71.184,206.69L11,206.651v-48.023h72.747l39.205,244.994l1352.783,0.001l54.267-244.994
		h72.247v48.023l-62.407,0.037L1491.79,423.623z M31,186.664l36.983,0.024l-1.29-8.06H31V186.664z M1546.057,178.629l-1.785,8.057
		l37.978-0.022v-8.035H1546.057z"/>
</g>
</svg>
